<?xml version="1.0" encoding="UTF-8"?>
<svg id="Layer_1" xmlns="http://www.w3.org/2000/svg" version="1.1" viewBox="0 0 5155.16 4201.27">
  <!-- Generator: Adobe Illustrator 30.2.1, SVG Export Plug-In . SVG Version: 2.1.1 Build 1)  -->
  <defs>
    <style>
      .st0 {
        fill: #03ae75;
      }
    </style>
  </defs>
  <g id="Layer_2">
    <g>
      <path d="M1647.84,1605.2c131.36-14.51,205.61,77.96,213.9,120.53,0,0,345.08-13.01,465.6-13.01-21.26-261.15-92.55-541.99-459.68-580.84-427.2-45.19-804.79,210.94-1021.05,636.38-216.22,425.4-248.14,914.66,106.39,1169.89,284.96,205.2,953.66,49.69,1173.45-393.49,219.83-443.14-24.83-751.61-269.4-769.35-244.61-17.7-478.65,74.47-556.61,177.26,63.83-202.09,218.89-333.22,347.4-347.4h0v.04h0ZM1590.46,2142.77c92.74,59.92,105.23,205.39,27.97,324.86-77.25,119.51-215.06,167.81-307.76,107.85-92.74-59.92-105.23-205.39-27.97-324.86,77.29-119.51,215.06-167.81,307.76-107.85Z"/>
      <path class="st0" d="M4562,1173.02l-109.91-90.75-169.05,194.4c-36.34-30.75-77.44-57.37-123.37-79.16-390.9-185.21-905.17,19.69-1177.61,491.62-220.54,381.97-231.75,869.55-31.99,1120.43l-187.2,215.25,116.81,94.2,181.09-209.47c20.55,12.9,42.41,24.11,65.47,33.41,390.6,157.24,921.08-22.09,1193.55-493.99,210.98-365.4,246.41-798.08,60.3-1065.45l181.99-210.45h-.08v-.04ZM3403.89,2002.07c86.89-258.94,262.84-429.68,402.49-401.29,49.8,10.09,84.71,47.4,105.79,102.34l-556.91,640.35c-6.68-100.88,9.22-223.99,48.64-341.4h-.01ZM3884.04,2157.5c-86.89,258.9-268.95,420.15-408,404.74-29.85-3.34-54.3-20.59-73.28-48.34l532.95-616.39c-4.2,81.04-21.75,171.07-51.64,260.02h-.04v-.04h.01Z"/>
      <path d="M2423.68,2545.63c135.3-4.31,245.85,106.24,241.54,241.54-3.9,122.51-103.69,222.3-226.24,226.2-135.3,4.31-245.85-106.24-241.54-241.54,3.9-122.51,103.69-222.3,226.24-226.2Z"/>
    </g>
  </g>
</svg>